<svg width="32" height="32" viewBox="0 0 32 32" fill="none" xmlns="http://www.w3.org/2000/svg">
  <rect width="32" height="32" rx="8" fill="#2B7CEE"/>
  <path d="M8 12V20C8 20.5523 8.44772 21 9 21H14.5V19H10V17H13V15H10V13H14.5V11H9C8.44772 11 8 11.4477 8 12Z" fill="white"/>
  <path d="M16.5 11V21H18.5V17H21.5C22.8807 17 24 15.8807 24 14.5V13.5C24 12.1193 22.8807 11 21.5 11H16.5ZM18.5 13H21.5C21.7761 13 22 13.2239 22 13.5V14.5C22 14.7761 21.7761 15 21.5 15H18.5V13Z" fill="white"/>
  <circle cx="26" cy="8" r="3" fill="#EF4444"/>
</svg>